G04 Layer: TopLayer*
G04 EasyEDA v6.4.25, 2021-12-29T00:34:57+05:30*
G04 e214cb0dc0844b289ac3543a97dd1b39,71774f05ae434452a44acbc4d9ae3e3b,10*
G04 Gerber Generator version 0.2*
G04 Scale: 100 percent, Rotated: No, Reflected: No *
G04 Dimensions in millimeters *
G04 leading zeros omitted , absolute positions ,4 integer and 5 decimal *
%FSLAX45Y45*%
%MOMM*%

%ADD11C,1.5240*%
%ADD12C,1.5494*%
%ADD13C,1.5748*%
%ADD14R,1.5748X1.5748*%
%ADD15C,2.0000*%
%ADD16R,2.0000X2.0000*%
%ADD17C,1.6510*%
%ADD18R,5.0000X5.0000*%
%ADD19R,2.5000X2.5000*%
%ADD20C,2.7000*%
%ADD21R,2.7000X2.7000*%
%ADD22C,1.8796*%
%ADD23C,1.7000*%

%LPD*%
D11*
G01*
X3331971Y4027931D03*
G01*
X3073907Y4027931D03*
G01*
X3331971Y4285995D03*
G01*
X3073907Y4285995D03*
G01*
X3331971Y4544060D03*
G01*
X3073907Y4544060D03*
G01*
X3331971Y4802123D03*
G01*
X3073907Y4802123D03*
G01*
X3331971Y5060187D03*
G01*
X3073907Y5060187D03*
G01*
X3331971Y5318252D03*
G01*
X3073907Y5318252D03*
G01*
X3331971Y5576315D03*
G01*
X3073907Y5576315D03*
G01*
X3331971Y5834379D03*
G01*
X3073907Y5834379D03*
G01*
X3331971Y6092444D03*
G01*
X3073907Y6092444D03*
G01*
X3331971Y6350507D03*
G01*
X3073907Y6350507D03*
D12*
G01*
X3331971Y6608571D03*
G01*
X3073907Y6608571D03*
G01*
X3331971Y6866636D03*
G01*
X3073907Y6866636D03*
G01*
X3331971Y7124700D03*
G01*
X3073907Y7124700D03*
G01*
X3331971Y7382763D03*
G01*
X3073907Y7382763D03*
G01*
X3331971Y7640828D03*
G01*
X3073907Y7640828D03*
G01*
X3331971Y7898892D03*
G01*
X3073907Y7898892D03*
G01*
X3331971Y8156955D03*
G01*
X3073907Y8156955D03*
G01*
X3331971Y8415020D03*
G01*
X3073907Y8415020D03*
G01*
X3331971Y8673084D03*
G01*
X3073907Y8673084D03*
G01*
X3331971Y8931147D03*
G01*
X3073907Y8931147D03*
D13*
G01*
X6010402Y4307839D03*
G01*
X5756402Y4307839D03*
G01*
X5502402Y4307839D03*
G01*
X5248402Y4307839D03*
G01*
X4994402Y4307839D03*
G36*
X4661659Y4386582D02*
G01*
X4819139Y4386582D01*
X4819139Y4229102D01*
X4661659Y4229102D01*
G37*
G01*
X2454402Y9248139D03*
G01*
X2454402Y9502139D03*
G01*
X2454402Y9756139D03*
G01*
X2454402Y10010139D03*
G01*
X2454402Y10264139D03*
D14*
G01*
X2454402Y10518139D03*
D15*
G01*
X4737100Y5930900D03*
D16*
G01*
X6007100Y4914900D03*
D15*
G01*
X5753100Y4914900D03*
G01*
X5499100Y4914900D03*
G01*
X5245100Y4914900D03*
G01*
X4991100Y4914900D03*
G01*
X4737100Y4914900D03*
D16*
G01*
X6007100Y5930900D03*
D15*
G01*
X5753100Y5930900D03*
G01*
X5499100Y5930900D03*
G01*
X5245100Y5930900D03*
G01*
X4991100Y5930900D03*
G01*
X6010402Y7203439D03*
D16*
G01*
X4740402Y8219439D03*
D15*
G01*
X4994402Y8219439D03*
G01*
X5248402Y8219439D03*
G01*
X5502402Y8219439D03*
G01*
X5756402Y8219439D03*
G01*
X6010402Y8219439D03*
D16*
G01*
X4740402Y7203439D03*
D15*
G01*
X4994402Y7203439D03*
G01*
X5248402Y7203439D03*
G01*
X5502402Y7203439D03*
G01*
X5756402Y7203439D03*
D11*
G01*
X7427470Y8928605D03*
G01*
X7685534Y8928605D03*
G01*
X7427470Y8670541D03*
G01*
X7685534Y8670541D03*
G01*
X7427470Y8412477D03*
G01*
X7685534Y8412477D03*
G01*
X7427470Y8154413D03*
G01*
X7685534Y8154413D03*
G01*
X7427470Y7896349D03*
G01*
X7685534Y7896349D03*
G01*
X7427470Y7638285D03*
G01*
X7685534Y7638285D03*
G01*
X7427470Y7380221D03*
G01*
X7685534Y7380221D03*
G01*
X7427470Y7122157D03*
G01*
X7685534Y7122157D03*
G01*
X7427470Y6864093D03*
G01*
X7685534Y6864093D03*
G01*
X7427470Y6606029D03*
G01*
X7685534Y6606029D03*
D12*
G01*
X7427470Y6347965D03*
G01*
X7685534Y6347965D03*
G01*
X7427470Y6089901D03*
G01*
X7685534Y6089901D03*
G01*
X7427470Y5831837D03*
G01*
X7685534Y5831837D03*
G01*
X7427470Y5573773D03*
G01*
X7685534Y5573773D03*
G01*
X7427470Y5315709D03*
G01*
X7685534Y5315709D03*
G01*
X7427470Y5057645D03*
G01*
X7685534Y5057645D03*
G01*
X7427470Y4799581D03*
G01*
X7685534Y4799581D03*
G01*
X7427470Y4541517D03*
G01*
X7685534Y4541517D03*
G01*
X7427470Y4283453D03*
G01*
X7685534Y4283453D03*
G01*
X7427470Y4025389D03*
G01*
X7685534Y4025389D03*
D17*
G01*
X3898900Y9626600D03*
G01*
X4152900Y9626600D03*
G01*
X4406900Y9626600D03*
G01*
X4660900Y9626600D03*
G01*
X4914900Y9626600D03*
G01*
X5168900Y9626600D03*
G01*
X5422900Y9626600D03*
G01*
X5676900Y9626600D03*
G01*
X5930900Y9626600D03*
G01*
X6184900Y9626600D03*
G01*
X6438900Y9626600D03*
G01*
X6692900Y9626600D03*
G01*
X6946900Y9626600D03*
G01*
X6946900Y9880600D03*
G01*
X6692900Y9880600D03*
G01*
X6438900Y9880600D03*
G01*
X6184900Y9880600D03*
G01*
X5930900Y9880600D03*
G01*
X5676900Y9880600D03*
G01*
X5422900Y9880600D03*
G01*
X5168900Y9880600D03*
G01*
X4914900Y9880600D03*
G01*
X4660900Y9880600D03*
G01*
X4406900Y9880600D03*
G01*
X4152900Y9880600D03*
G01*
X3898900Y9880600D03*
D18*
G01*
X8648702Y1498597D03*
G01*
X9296402Y1498597D03*
D19*
G01*
X7099302Y901697D03*
G01*
X6604002Y901697D03*
G01*
X7607302Y901697D03*
D14*
G01*
X6035802Y2326639D03*
G01*
X6416802Y2326639D03*
D20*
G01*
X5464810Y3025647D03*
D21*
G01*
X5461711Y1317548D03*
G01*
X1501978Y1323492D03*
D20*
G01*
X1501902Y3025139D03*
G36*
X886460Y4371339D02*
G01*
X1043939Y4371339D01*
X1043939Y4213860D01*
X886460Y4213860D01*
G37*
G36*
X886460Y5768339D02*
G01*
X1043939Y5768339D01*
X1043939Y5610860D01*
X886460Y5610860D01*
G37*
G36*
X873760Y7228839D02*
G01*
X1031239Y7228839D01*
X1031239Y7071360D01*
X873760Y7071360D01*
G37*
D14*
G01*
X1908302Y4853939D03*
G01*
X1921002Y6441439D03*
G01*
X1921002Y7851139D03*
G01*
X1908302Y4155439D03*
G01*
X1921002Y5704839D03*
G01*
X1921002Y7152639D03*
G01*
X1908302Y4472939D03*
G01*
X1921002Y6073139D03*
G01*
X1921002Y7508239D03*
G01*
X1908302Y3825239D03*
G01*
X1908302Y5209539D03*
G01*
X1921002Y6809739D03*
D22*
G01*
X8585202Y8928097D03*
G01*
X8585202Y8674097D03*
G01*
X8585202Y8420097D03*
G01*
X8585202Y8166097D03*
G01*
X8962900Y4048757D03*
G01*
X8962900Y4302757D03*
G01*
X8962900Y4556757D03*
G01*
X8962900Y4810757D03*
G01*
X8962900Y5064757D03*
G01*
X8962900Y5318757D03*
G01*
X8962900Y5572757D03*
G01*
X8962900Y5826757D03*
G01*
X8962900Y6080757D03*
G01*
X8962900Y6334757D03*
D11*
G01*
X4041927Y10985957D03*
G01*
X4291914Y10735970D03*
G01*
X3791915Y10735970D03*
G01*
X6645427Y10985957D03*
G01*
X6895414Y10735970D03*
G01*
X6395415Y10735970D03*
G01*
X5375427Y10998657D03*
G01*
X5625414Y10748670D03*
G01*
X5125415Y10748670D03*
D23*
G01*
X6505702Y11838939D03*
G01*
X6505702Y11584939D03*
G01*
X6251702Y11838939D03*
G01*
X6251702Y11584939D03*
G01*
X5997702Y11838939D03*
G01*
X5997702Y11584939D03*
G01*
X5743702Y11838939D03*
G01*
X5743702Y11584939D03*
G01*
X5489702Y11838939D03*
G01*
X5489702Y11584939D03*
G01*
X5235702Y11838939D03*
G01*
X5235702Y11584939D03*
G01*
X4981702Y11838939D03*
G01*
X4981702Y11584939D03*
G01*
X4727702Y11838939D03*
G01*
X4727702Y11584939D03*
G01*
X4473702Y11838939D03*
G01*
X4473702Y11584939D03*
G01*
X4219702Y11838939D03*
G36*
X4134698Y11669943D02*
G01*
X4304700Y11669943D01*
X4304700Y11499941D01*
X4134698Y11499941D01*
G37*
D22*
G01*
X8585202Y6870697D03*
G01*
X8585202Y7124697D03*
G01*
X8585202Y7378697D03*
G01*
X8585202Y7632697D03*
M02*
