G04 Layer: BottomSolderMaskLayer*
G04 EasyEDA v6.4.25, 2021-12-29T00:34:57+05:30*
G04 e214cb0dc0844b289ac3543a97dd1b39,71774f05ae434452a44acbc4d9ae3e3b,10*
G04 Gerber Generator version 0.2*
G04 Scale: 100 percent, Rotated: No, Reflected: No *
G04 Dimensions in millimeters *
G04 leading zeros omitted , absolute positions ,4 integer and 5 decimal *
%FSLAX45Y45*%
%MOMM*%

%ADD36C,1.7272*%
%ADD37C,1.7526*%
%ADD38C,1.7780*%
%ADD40C,2.2032*%
%ADD42C,1.8542*%
%ADD46C,2.9032*%
%ADD48C,2.0828*%
%ADD49C,1.8016*%

%LPD*%
D36*
G01*
X3331971Y4027931D03*
G01*
X3073907Y4027931D03*
G01*
X3331971Y4285995D03*
G01*
X3073907Y4285995D03*
G01*
X3331971Y4544060D03*
G01*
X3073907Y4544060D03*
G01*
X3331971Y4802123D03*
G01*
X3073907Y4802123D03*
G01*
X3331971Y5060187D03*
G01*
X3073907Y5060187D03*
G01*
X3331971Y5318252D03*
G01*
X3073907Y5318252D03*
G01*
X3331971Y5576315D03*
G01*
X3073907Y5576315D03*
G01*
X3331971Y5834379D03*
G01*
X3073907Y5834379D03*
G01*
X3331971Y6092444D03*
G01*
X3073907Y6092444D03*
G01*
X3331971Y6350507D03*
G01*
X3073907Y6350507D03*
D37*
G01*
X3331971Y6608571D03*
G01*
X3073907Y6608571D03*
G01*
X3331971Y6866636D03*
G01*
X3073907Y6866636D03*
G01*
X3331971Y7124700D03*
G01*
X3073907Y7124700D03*
G01*
X3331971Y7382763D03*
G01*
X3073907Y7382763D03*
G01*
X3331971Y7640828D03*
G01*
X3073907Y7640828D03*
G01*
X3331971Y7898892D03*
G01*
X3073907Y7898892D03*
G01*
X3331971Y8156955D03*
G01*
X3073907Y8156955D03*
G01*
X3331971Y8415020D03*
G01*
X3073907Y8415020D03*
G01*
X3331971Y8673084D03*
G01*
X3073907Y8673084D03*
G01*
X3331971Y8931147D03*
G01*
X3073907Y8931147D03*
D38*
G01*
X6010402Y4307839D03*
G01*
X5756402Y4307839D03*
G01*
X5502402Y4307839D03*
G01*
X5248402Y4307839D03*
G01*
X4994402Y4307839D03*
G36*
X4651502Y4218939D02*
G01*
X4651502Y4396739D01*
X4829302Y4396739D01*
X4829302Y4218939D01*
G37*
G01*
X2454402Y9248139D03*
G01*
X2454402Y9502139D03*
G01*
X2454402Y9756139D03*
G01*
X2454402Y10010139D03*
G01*
X2454402Y10264139D03*
G36*
X2365502Y10429239D02*
G01*
X2365502Y10607039D01*
X2543302Y10607039D01*
X2543302Y10429239D01*
G37*
D40*
G01*
X4737100Y5930900D03*
G36*
X5896863Y4804663D02*
G01*
X5896863Y5025136D01*
X6117336Y5025136D01*
X6117336Y4804663D01*
G37*
G01*
X5753100Y4914900D03*
G01*
X5499100Y4914900D03*
G01*
X5245100Y4914900D03*
G01*
X4991100Y4914900D03*
G01*
X4737100Y4914900D03*
G36*
X5896863Y5820663D02*
G01*
X5896863Y6041136D01*
X6117336Y6041136D01*
X6117336Y5820663D01*
G37*
G01*
X5753100Y5930900D03*
G01*
X5499100Y5930900D03*
G01*
X5245100Y5930900D03*
G01*
X4991100Y5930900D03*
G01*
X6010402Y7203439D03*
G36*
X4630165Y8109204D02*
G01*
X4630165Y8329676D01*
X4850637Y8329676D01*
X4850637Y8109204D01*
G37*
G01*
X4994402Y8219439D03*
G01*
X5248402Y8219439D03*
G01*
X5502402Y8219439D03*
G01*
X5756402Y8219439D03*
G01*
X6010402Y8219439D03*
G36*
X4630165Y7093204D02*
G01*
X4630165Y7313676D01*
X4850637Y7313676D01*
X4850637Y7093204D01*
G37*
G01*
X4994402Y7203439D03*
G01*
X5248402Y7203439D03*
G01*
X5502402Y7203439D03*
G01*
X5756402Y7203439D03*
D36*
G01*
X7427470Y8928605D03*
G01*
X7685534Y8928605D03*
G01*
X7427470Y8670541D03*
G01*
X7685534Y8670541D03*
G01*
X7427470Y8412477D03*
G01*
X7685534Y8412477D03*
G01*
X7427470Y8154413D03*
G01*
X7685534Y8154413D03*
G01*
X7427470Y7896349D03*
G01*
X7685534Y7896349D03*
G01*
X7427470Y7638285D03*
G01*
X7685534Y7638285D03*
G01*
X7427470Y7380221D03*
G01*
X7685534Y7380221D03*
G01*
X7427470Y7122157D03*
G01*
X7685534Y7122157D03*
G01*
X7427470Y6864093D03*
G01*
X7685534Y6864093D03*
G01*
X7427470Y6606029D03*
G01*
X7685534Y6606029D03*
D37*
G01*
X7427470Y6347965D03*
G01*
X7685534Y6347965D03*
G01*
X7427470Y6089901D03*
G01*
X7685534Y6089901D03*
G01*
X7427470Y5831837D03*
G01*
X7685534Y5831837D03*
G01*
X7427470Y5573773D03*
G01*
X7685534Y5573773D03*
G01*
X7427470Y5315709D03*
G01*
X7685534Y5315709D03*
G01*
X7427470Y5057645D03*
G01*
X7685534Y5057645D03*
G01*
X7427470Y4799581D03*
G01*
X7685534Y4799581D03*
G01*
X7427470Y4541517D03*
G01*
X7685534Y4541517D03*
G01*
X7427470Y4283453D03*
G01*
X7685534Y4283453D03*
G01*
X7427470Y4025389D03*
G01*
X7685534Y4025389D03*
D42*
G01*
X3898900Y9626600D03*
G01*
X4152900Y9626600D03*
G01*
X4406900Y9626600D03*
G01*
X4660900Y9626600D03*
G01*
X4914900Y9626600D03*
G01*
X5168900Y9626600D03*
G01*
X5422900Y9626600D03*
G01*
X5676900Y9626600D03*
G01*
X5930900Y9626600D03*
G01*
X6184900Y9626600D03*
G01*
X6438900Y9626600D03*
G01*
X6692900Y9626600D03*
G01*
X6946900Y9626600D03*
G01*
X6946900Y9880600D03*
G01*
X6692900Y9880600D03*
G01*
X6438900Y9880600D03*
G01*
X6184900Y9880600D03*
G01*
X5930900Y9880600D03*
G01*
X5676900Y9880600D03*
G01*
X5422900Y9880600D03*
G01*
X5168900Y9880600D03*
G01*
X4914900Y9880600D03*
G01*
X4660900Y9880600D03*
G01*
X4406900Y9880600D03*
G01*
X4152900Y9880600D03*
G01*
X3898900Y9880600D03*
G36*
X8393684Y1243584D02*
G01*
X8393684Y1753615D01*
X8903715Y1753615D01*
X8903715Y1243584D01*
G37*
G36*
X9041384Y1243584D02*
G01*
X9041384Y1753615D01*
X9551415Y1753615D01*
X9551415Y1243584D01*
G37*
G36*
X6969252Y771652D02*
G01*
X6969252Y1031747D01*
X7229347Y1031747D01*
X7229347Y771652D01*
G37*
G36*
X6473952Y771652D02*
G01*
X6473952Y1031747D01*
X6734047Y1031747D01*
X6734047Y771652D01*
G37*
G36*
X7477252Y771652D02*
G01*
X7477252Y1031747D01*
X7737347Y1031747D01*
X7737347Y771652D01*
G37*
G36*
X5951981Y2242820D02*
G01*
X5951981Y2410460D01*
X6119621Y2410460D01*
X6119621Y2242820D01*
G37*
G36*
X6332981Y2242820D02*
G01*
X6332981Y2410460D01*
X6500622Y2410460D01*
X6500622Y2242820D01*
G37*
D46*
G01*
X5464810Y3025647D03*
G36*
X5316473Y1172463D02*
G01*
X5316473Y1462786D01*
X5606795Y1462786D01*
X5606795Y1172463D01*
G37*
G36*
X1356868Y1178305D02*
G01*
X1356868Y1468628D01*
X1647189Y1468628D01*
X1647189Y1178305D01*
G37*
G01*
X1501902Y3025139D03*
G36*
X881379Y4208779D02*
G01*
X881379Y4376420D01*
X1049020Y4376420D01*
X1049020Y4208779D01*
G37*
G36*
X881379Y5605779D02*
G01*
X881379Y5773420D01*
X1049020Y5773420D01*
X1049020Y5605779D01*
G37*
G36*
X868679Y7066279D02*
G01*
X868679Y7233920D01*
X1036320Y7233920D01*
X1036320Y7066279D01*
G37*
G36*
X1824481Y4770120D02*
G01*
X1824481Y4937760D01*
X1992121Y4937760D01*
X1992121Y4770120D01*
G37*
G36*
X1837181Y6357620D02*
G01*
X1837181Y6525260D01*
X2004821Y6525260D01*
X2004821Y6357620D01*
G37*
G36*
X1837181Y7767320D02*
G01*
X1837181Y7934960D01*
X2004821Y7934960D01*
X2004821Y7767320D01*
G37*
G36*
X1824481Y4071620D02*
G01*
X1824481Y4239260D01*
X1992121Y4239260D01*
X1992121Y4071620D01*
G37*
G36*
X1837181Y5621020D02*
G01*
X1837181Y5788660D01*
X2004821Y5788660D01*
X2004821Y5621020D01*
G37*
G36*
X1837181Y7068820D02*
G01*
X1837181Y7236460D01*
X2004821Y7236460D01*
X2004821Y7068820D01*
G37*
G36*
X1824481Y4389120D02*
G01*
X1824481Y4556760D01*
X1992121Y4556760D01*
X1992121Y4389120D01*
G37*
G36*
X1837181Y5989320D02*
G01*
X1837181Y6156960D01*
X2004821Y6156960D01*
X2004821Y5989320D01*
G37*
G36*
X1837181Y7424420D02*
G01*
X1837181Y7592060D01*
X2004821Y7592060D01*
X2004821Y7424420D01*
G37*
G36*
X1824481Y3741420D02*
G01*
X1824481Y3909060D01*
X1992121Y3909060D01*
X1992121Y3741420D01*
G37*
G36*
X1824481Y5125720D02*
G01*
X1824481Y5293360D01*
X1992121Y5293360D01*
X1992121Y5125720D01*
G37*
G36*
X1837181Y6725920D02*
G01*
X1837181Y6893560D01*
X2004821Y6893560D01*
X2004821Y6725920D01*
G37*
D48*
G01*
X8585202Y8928097D03*
G01*
X8585202Y8674097D03*
G01*
X8585202Y8420097D03*
G01*
X8585202Y8166097D03*
G01*
X8962900Y4048757D03*
G01*
X8962900Y4302757D03*
G01*
X8962900Y4556757D03*
G01*
X8962900Y4810757D03*
G01*
X8962900Y5064757D03*
G01*
X8962900Y5318757D03*
G01*
X8962900Y5572757D03*
G01*
X8962900Y5826757D03*
G01*
X8962900Y6080757D03*
G01*
X8962900Y6334757D03*
D36*
G01*
X4041927Y10985957D03*
G01*
X4291914Y10735970D03*
G01*
X3791915Y10735970D03*
G01*
X6645427Y10985957D03*
G01*
X6895414Y10735970D03*
G01*
X6395415Y10735970D03*
G01*
X5375427Y10998657D03*
G01*
X5625414Y10748670D03*
G01*
X5125415Y10748670D03*
D49*
G01*
X6505702Y11838939D03*
G01*
X6505702Y11584939D03*
G01*
X6251702Y11838939D03*
G01*
X6251702Y11584939D03*
G01*
X5997702Y11838939D03*
G01*
X5997702Y11584939D03*
G01*
X5743702Y11838939D03*
G01*
X5743702Y11584939D03*
G01*
X5489702Y11838939D03*
G01*
X5489702Y11584939D03*
G01*
X5235702Y11838939D03*
G01*
X5235702Y11584939D03*
G01*
X4981702Y11838939D03*
G01*
X4981702Y11584939D03*
G01*
X4727702Y11838939D03*
G01*
X4727702Y11584939D03*
G01*
X4473702Y11838939D03*
G01*
X4473702Y11584939D03*
G01*
X4219702Y11838939D03*
G36*
X4129531Y11494770D02*
G01*
X4129531Y11675110D01*
X4309871Y11675110D01*
X4309871Y11494770D01*
G37*
D48*
G01*
X8585202Y6870697D03*
G01*
X8585202Y7124697D03*
G01*
X8585202Y7378697D03*
G01*
X8585202Y7632697D03*
M02*
