M48
METRIC,LZ,000.000
;FILE_FORMAT=3:3
;TYPE=PLATED
;Layer: Drill PTH
;EasyEDA v6.4.25, 2021-12-29T00:34:57+05:30
;e214cb0dc0844b289ac3543a97dd1b39,71774f05ae434452a44acbc4d9ae3e3b,10
;Gerber Generator version 0.2
;Holesize 1 = 0.829 mm
T01C0.829
;Holesize 2 = 0.889 mm
T02C0.889
;Holesize 3 = 0.901 mm
T03C0.901
;Holesize 4 = 0.915 mm
T04C0.915
;Holesize 5 = 1.000 mm
T05C1.000
;Holesize 6 = 1.016 mm
T06C1.016
;Holesize 7 = 1.101 mm
T07C1.101
;Holesize 8 = 1.501 mm
T08C1.501
;Holesize 9 = 2.000 mm
T09C2.000
;Holesize 10 = 3.000 mm
T10C3.000
%
G05
G90
T01
X033320Y066086
X030739Y066086
X033320Y068666
X030739Y068666
X033320Y071247
X030739Y071247
X033320Y073828
X030739Y073828
X033320Y076408
X030739Y076408
X033320Y078989
X030739Y078989
X033320Y081570
X030739Y081570
X033320Y084150
X030739Y084150
X033320Y086731
X030739Y086731
X033320Y089312
X030739Y089312
X074275Y063480
X076855Y063480
X074275Y060899
X076855Y060899
X074275Y058318
X076855Y058318
X074275Y055738
X076855Y055738
X074275Y053157
X076855Y053157
X074275Y050576
X076855Y050576
X074275Y047996
X076855Y047996
X074275Y045415
X076855Y045415
X074275Y042835
X076855Y042835
X074275Y040254
X076855Y040254
T02
X060104Y043078
X057564Y043078
X055024Y043078
X052484Y043078
X049944Y043078
X047404Y043078
X024544Y092481
X024544Y095021
X024544Y097561
X024544Y100101
X024544Y102641
X024544Y105181
X060358Y023266
X064168Y023266
X009652Y042926
X009652Y056896
X009525Y071501
X019083Y048539
X019210Y064414
X019210Y078511
X019083Y041554
X019210Y057048
X019210Y071526
X019083Y044729
X019210Y060731
X019210Y075082
X019083Y038252
X019083Y052095
X019210Y068097
T03
X040419Y109860
X042919Y107360
X037919Y107360
X066454Y109860
X068954Y107360
X063954Y107360
X053754Y109987
X056254Y107487
X051254Y107487
T04
X033320Y040279
X030739Y040279
X033320Y042860
X030739Y042860
X033320Y045441
X030739Y045441
X033320Y048021
X030739Y048021
X033320Y050602
X030739Y050602
X033320Y053183
X030739Y053183
X033320Y055763
X030739Y055763
X033320Y058344
X030739Y058344
X033320Y060924
X030739Y060924
X033320Y063505
X030739Y063505
X074275Y089286
X076855Y089286
X074275Y086705
X076855Y086705
X074275Y084125
X076855Y084125
X074275Y081544
X076855Y081544
X074275Y078964
X076855Y078964
X074275Y076383
X076855Y076383
X074275Y073802
X076855Y073802
X074275Y071222
X076855Y071222
X074275Y068641
X076855Y068641
X074275Y066060
X076855Y066060
T05
X047371Y059309
X060071Y049149
X057531Y049149
X054991Y049149
X052451Y049149
X049911Y049149
X047371Y049149
X060071Y059309
X057531Y059309
X054991Y059309
X052451Y059309
X049911Y059309
X060104Y072034
X047404Y082194
X049944Y082194
X052484Y082194
X055024Y082194
X057564Y082194
X060104Y082194
X047404Y072034
X049944Y072034
X052484Y072034
X055024Y072034
X057564Y072034
T06
X038989Y096266
X041529Y096266
X044069Y096266
X046609Y096266
X049149Y096266
X051689Y096266
X054229Y096266
X056769Y096266
X059309Y096266
X061849Y096266
X064389Y096266
X066929Y096266
X069469Y096266
X069469Y098806
X066929Y098806
X064389Y098806
X061849Y098806
X059309Y098806
X056769Y098806
X054229Y098806
X051689Y098806
X049149Y098806
X046609Y098806
X044069Y098806
X041529Y098806
X038989Y098806
X085852Y089281
X085852Y086741
X085852Y084201
X085852Y081661
X089629Y040488
X089629Y043028
X089629Y045568
X089629Y048108
X089629Y050648
X089629Y053188
X089629Y055728
X089629Y058268
X089629Y060808
X089629Y063348
X085852Y068707
X085852Y071247
X085852Y073787
X085852Y076327
T07
X065057Y118389
X065057Y115849
X062517Y118389
X062517Y115849
X059977Y118389
X059977Y115849
X057437Y118389
X057437Y115849
X054897Y118389
X054897Y115849
X052357Y118389
X052357Y115849
X049817Y118389
X049817Y115849
X047277Y118389
X047277Y115849
X044737Y118389
X044737Y115849
X042197Y118389
X042197Y115849
T08
X054648Y030257
X054617Y013176
X015020Y013235
X015019Y030251
T09
X070993Y009017
X066040Y009017
X076073Y009017
T10
X086487Y014986
X092964Y014986
M30
